<svg xmlns="http://www.w3.org/2000/svg" fill="none" viewBox="0 0 14 14"><path fill="#000000" fill-rule="evenodd" d="M1.5 0C1.08579 0 0.75 0.335786 0.75 0.75C0.75 1.16421 1.08579 1.5 1.5 1.5H2.75V3.50007C2.75 4.95171 3.47779 6.23337 4.58839 7.00007C3.47784 7.76677 2.75009 9.0484 2.75009 10.5V12.5H1.50093C1.08671 12.5 0.750926 12.8358 0.750926 13.25C0.750926 13.6642 1.08671 14 1.50093 14H3.50009H10.5001H12.5009C12.9151 14 13.2509 13.6642 13.2509 13.25C13.2509 12.8358 12.9151 12.5 12.5009 12.5H11.2501V10.5C11.2501 9.04836 10.5223 7.7667 9.41169 7C10.5222 6.2333 11.25 4.95167 11.25 3.50007V1.5H12.5C12.9142 1.5 13.25 1.16421 13.25 0.75C13.25 0.335786 12.9142 0 12.5 0H10.5H3.5H1.5ZM8.16248 9.83054L9.75009 10.9646V12.5002H4.25009V10.9644L5.83752 9.83054C6.53292 9.33383 7.46708 9.33383 8.16248 9.83054Z" clip-rule="evenodd"></path></svg>