<svg xmlns="http://www.w3.org/2000/svg" fill="none" viewBox="0 0 14 14"><path fill="#000000" fill-rule="evenodd" d="M9.25 2.99958C9.25 2.80552 9.29518 2.61413 9.38197 2.44056L10.4377 0.329136C10.1809 0.123192 9.85481 0 9.5 0H3.62497V14H9.5C9.56361 14 9.6263 13.996 9.68784 13.9884C9.40419 13.5478 9.25 13.0316 9.25 12.4996V2.99958ZM1.5 0H2.37497V14H1.5C0.671573 14 0 13.3284 0 12.5V1.5C0 0.671573 0.671573 0 1.5 0ZM5.49997 3.375C5.15479 3.375 4.87497 3.65482 4.87497 4C4.87497 4.34518 5.15479 4.625 5.49997 4.625H7.49997C7.84515 4.625 8.12497 4.34518 8.12497 4C8.12497 3.65482 7.84515 3.375 7.49997 3.375H5.49997ZM10.5 2.99958L11.7764 0.44679C11.8685 0.262528 12.1315 0.262528 12.2236 0.44679L13.5 2.99958V8.875H10.5V2.99958ZM10.5 10.125H13.5V12.4996C13.5 12.8974 13.342 13.2789 13.0607 13.5602C12.7794 13.8415 12.3978 13.9996 12 13.9996C11.6022 13.9996 11.2206 13.8415 10.9393 13.5602C10.658 13.2789 10.5 12.8974 10.5 12.4996V10.125Z" clip-rule="evenodd"></path></svg>