<svg xmlns="http://www.w3.org/2000/svg" fill="none" viewBox="0 0 14 14"><path fill="#000000" fill-rule="evenodd" d="M14 5C14 7.76142 11.7614 10 9 10C7.88986 10 6.86422 9.63821 6.03456 9.0261L1.28033 13.7803C0.987437 14.0732 0.512563 14.0732 0.21967 13.7803C-0.0732233 13.4874 -0.0732233 13.0126 0.21967 12.7197L4.9739 7.96544C4.36179 7.13578 4 6.11014 4 5C4 2.23858 6.23858 0 9 0C11.7614 0 14 2.23858 14 5ZM9.22379 2.26156C8.89226 2.22855 8.55753 2.26958 8.24379 2.38168C7.93004 2.49379 7.64511 2.67417 7.40957 2.9098C7.11673 3.20275 7.11682 3.67763 7.40977 3.97046C7.70272 4.2633 8.1776 4.26321 8.47043 3.97026C8.54895 3.89172 8.64393 3.83159 8.74851 3.79422C8.85309 3.75685 8.96466 3.74318 9.07517 3.75418C9.18568 3.76518 9.29237 3.80059 9.38753 3.85785C9.48269 3.9151 9.56395 3.99278 9.62543 4.08526C9.85476 4.4302 10.3203 4.52392 10.6652 4.2946C11.0102 4.06528 11.1039 3.59974 10.8746 3.2548C10.6901 2.97735 10.4463 2.74433 10.1609 2.57256C9.87539 2.40079 9.55532 2.29457 9.22379 2.26156Z" clip-rule="evenodd"></path></svg>